<svg version="1.1" id="_0280_smiley_face" xmlns="http://www.w3.org/2000/svg" xmlns:xlink="http://www.w3.org/1999/xlink" x="0px" y="0px" viewBox="0 0 500 500" style="width: 166px;" xml:space="preserve" data-imageid="smiley-face-20" imageName="Smiley Face" class="illustrations_image">
<style type="text/css">
	.st0_smiley-face-20{fill:#FFFFFF;}
	.st1_smiley-face-20{fill:#093F68;}
	.st2_smiley-face-20{fill:#FFBC0E;}
	.st3_smiley-face-20{fill:#68E1FD;}
</style>
<g id="circle_smiley-face-20">
	<path class="st0_smiley-face-20" d="M420,255.1c0.1,94.2-76.2,170.6-170.4,170.6c-33.5,0-66.2-9.8-94.2-28.3c-5.6-3.7-11-7.8-16.1-12.1&#10;&#9;&#9;C67.4,324.5,58.4,216.9,119.2,145c15.2-17.9,33.8-32.5,54.9-42.9l0,0c41.4-20.3,89.2-23.1,132.6-7.6l0,0&#10;&#9;&#9;C374.6,118.7,420,183,420,255.1z"/>
	<path class="st1_smiley-face-20" d="M249.4,427.7c-95.3,0-172.5-77.2-172.5-172.5c0-65.7,37.3-125.7,96.2-154.7l0.2-0.1&#10;&#9;&#9;c41.8-20.5,90.2-23.3,134.1-7.7l0,0l0.1,0.1c89.7,32.1,136.5,130.8,104.4,220.6c-12.6,35.2-36.2,65.3-67.4,85.9&#10;&#9;&#9;C316.3,417.8,283.3,427.7,249.4,427.7L249.4,427.7z M175.2,103.8l-0.2,0.1C91.5,145,57.1,246,98.2,329.6&#10;&#9;&#9;c10.2,20.8,24.7,39.3,42.4,54.3c15.5,13.2,33.3,23.4,52.5,30.2c88,30.5,184-16.2,214.5-104.1c30.1-87-15.1-182-101.5-213.5&#10;&#9;&#9;l-0.1-0.1C263.1,81.1,215.9,83.8,175.2,103.8L175.2,103.8z"/>
</g>
<g id="character_smiley-face-20">
	<rect x="237" y="275.7" class="st2_smiley-face-20" width="24.6" height="32.2"/>
	<path class="st1_smiley-face-20" d="M261.6,309.9H237c-1.1,0-2-0.9-2-2v-32.1c0-1.1,0.9-2,2-2h24.6c1.1,0,2,0.9,2,2v32.2&#10;&#9;&#9;C263.6,309,262.7,309.9,261.6,309.9z M239,305.9h20.6v-28.2H239L239,305.9z"/>
	<path class="st3_smiley-face-20 targetColor" d="M343.5,371.6v25.9c-57,37.7-131,37.7-188,0v-25.9c0-7.7,1-15.3,2.9-22.8c8.1-30.7,32.2-53,60.7-53h60.8&#10;&#9;&#9;C315,295.8,343.5,329.7,343.5,371.6z" style="fill: rgb(104, 225, 253);"/>
	<path class="st1_smiley-face-20" d="M249.4,427.7c-33.8,0-66.9-9.9-95.1-28.6c-0.6-0.4-0.9-1-0.9-1.6v-25.9c0-7.9,1-15.7,3-23.3&#10;&#9;&#9;c8.6-32.6,33.8-54.5,62.6-54.5h60.8c36.2,0,65.6,34.9,65.6,77.8v25.9c0,0.7-0.3,1.3-0.9,1.6C316.4,417.8,283.3,427.7,249.4,427.7z&#10;&#9;&#9; M157.4,396.4c55.9,36.5,128.1,36.5,184.1,0v-24.8c0-40.7-27.6-73.8-61.6-73.8h-60.8c-27,0-50.6,20.7-58.8,51.6&#10;&#9;&#9;c-1.9,7.3-2.9,14.7-2.9,22.3L157.4,396.4z M343.5,397.4L343.5,397.4z"/>
	<path class="st1_smiley-face-20" d="M192.4,417.9c-1.1,0-2-0.9-2-2v-61.6c0-1.1,0.9-2,2-2s2,0.9,2,2v61.7C194.4,417,193.5,417.9,192.4,417.9z"/>
	<path class="st1_smiley-face-20" d="M306.5,417.9c-1.1,0-2-0.9-2-2v-61.6c0-1.1,0.9-2,2-2s2,0.9,2,2v61.7C308.5,417,307.6,417.9,306.5,417.9z"/>
	<polygon class="st1_smiley-face-20" points="249.4,361.1 229.4,295.8 269.5,295.8 &#9;"/>
	<path class="st1_smiley-face-20" d="M249.4,363.1c-0.9,0-1.6-0.6-1.9-1.4l-20-65.4c-0.2-0.6-0.1-1.3,0.3-1.8c0.4-0.5,1-0.8,1.6-0.8h40.1&#10;&#9;&#9;c1.1,0,2,0.9,2,2c0,0.2,0,0.4-0.1,0.5l-20,65.4C251.1,362.5,250.3,363.1,249.4,363.1z M232.1,297.7l17.4,56.6l17.4-56.6H232.1z"/>
	<path class="st2_smiley-face-20" d="M192.4,415.6v0.2c-13-4.6-25.5-10.8-37-18.5c-5.6-3.7-11-7.8-16.1-12.1l-18.2-48c0,0-14.8-15.9-14-27.6&#10;&#9;&#9;s13.3-21.8,18.9-19.4c3.3,1.5,13.7,24,13.7,24c5.1-18,9.7-17.4,13-14.3s-5.1,29.1-5.1,29.1l10.9,19.6l31.4,56.8&#10;&#9;&#9;C191.5,408.7,192.4,412.1,192.4,415.6z"/>
	<path class="st1_smiley-face-20" d="M192.4,417.9c-0.2,0-0.4,0-0.7-0.1c-19.6-7-37.8-17.5-53.8-30.9c-0.3-0.2-0.4-0.5-0.6-0.8l-18.1-47.6&#10;&#9;&#9;c-2.1-2.3-15-17.1-14.2-28.8c0.6-8.6,6.8-16.1,12.3-19.5c3.5-2.1,6.8-2.7,9.3-1.6c2.9,1.3,8.4,11.8,12.5,20.3&#10;&#9;&#9;c2.6-7.6,5.3-11.4,8.6-12.3c2.1-0.6,4.1,0.1,6.2,2c3.6,3.4-1.1,20.1-4.4,30.4l41.8,75.7c1.9,3.3,2.9,7.1,2.9,11v0.2&#10;&#9;&#9;C194.4,417,193.5,417.9,192.4,417.9L192.4,417.9z M141,384.1c14.6,12.4,31.3,22.1,49.2,28.9c-0.3-2.2-1.1-4.4-2.2-6.4l-42.2-76.5&#10;&#9;&#9;c-0.3-0.5-0.3-1-0.1-1.6c3.7-11.4,6.8-25,5.6-27.2c-1.4-1.3-2.1-1.1-2.4-1c-1,0.3-3.8,2.3-7.3,14.5c-0.2,0.8-0.9,1.4-1.8,1.4&#10;&#9;&#9;c-0.8,0.1-1.6-0.4-2-1.1c-4.7-10.2-10.8-21.8-12.7-23c-1.1-0.5-3.3,0-5.6,1.4c-4.7,2.8-9.9,9.1-10.4,16.4&#10;&#9;&#9;c-0.7,10.8,13.3,26,13.4,26.1c0.2,0.2,0.3,0.4,0.4,0.6L141,384.1z"/>
	<circle class="st2_smiley-face-20" cx="245.1" cy="178.9" r="104.6"/>
	<path class="st1_smiley-face-20" d="M245.1,285.4c-58.8,0-106.5-47.7-106.5-106.6S186.3,72.3,245.1,72.3c58.8,0,106.5,47.7,106.5,106.6&#10;&#9;&#9;C351.6,237.7,303.9,285.4,245.1,285.4z M245.1,76.3c-56.7,0-102.6,45.9-102.6,102.6s45.9,102.6,102.6,102.6s102.6-45.9,102.6-102.6&#10;&#9;&#9;c0,0,0,0,0,0C347.6,122.3,301.7,76.4,245.1,76.3z"/>
	<ellipse class="st1_smiley-face-20" cx="215.2" cy="149.9" rx="13.7" ry="16.9"/>
	<ellipse class="st1_smiley-face-20" cx="274.9" cy="149.9" rx="13.7" ry="16.9"/>
	<path class="st1_smiley-face-20" d="M245.1,249.3c-35.3-0.1-65.8-24.9-72.9-59.5c-0.1-1.7,1.1-3.1,2.8-3.2c1.4-0.1,2.6,0.7,3,2&#10;&#9;&#9;c7.6,37.1,43.7,61,80.8,53.4c26.9-5.5,47.9-26.5,53.4-53.4c0.5-1.6,2.2-2.4,3.8-1.9c1.3,0.4,2.1,1.7,2,3&#10;&#9;&#9;C310.9,224.4,280.4,249.2,245.1,249.3z"/>
	<path class="st1_smiley-face-20" d="M129.6,331.1c-0.9,0-1.7-0.6-1.9-1.5c-1.7-5.9-1.2-10.5,1.5-13.6c3.8-4.5,10.4-3.8,10.7-3.8&#10;&#9;&#9;c1.1,0.3,1.7,1.4,1.5,2.4c-0.2,0.9-1,1.5-1.9,1.5l0,0c0,0-4.9-0.4-7.3,2.4c-1.7,2-1.9,5.4-0.6,10c0.3,1.1-0.4,2.2-1.4,2.4&#10;&#9;&#9;C129.9,331.1,129.8,331.1,129.6,331.1L129.6,331.1z"/>
	<path class="st1_smiley-face-20" d="M249.4,427.7c-1.1,0-2-0.9-2-2v-64.6c0-1.1,0.9-2,2-2s2,0.9,2,2v64.6C251.4,426.8,250.5,427.7,249.4,427.7z"/>
	<path class="st1_smiley-face-20" d="M282.3,404.1c-0.4,0-0.8-0.1-1.1-0.3l-12.8-8.4c-0.6-0.4-0.9-1-0.9-1.6v-25.6c0-1.1,0.9-2,2-2h25.6&#10;&#9;&#9;c1.1,0,2,0.9,2,2v25.6c0,0.7-0.3,1.3-0.9,1.6l-12.8,8.4C283.1,404.1,282.7,404.2,282.3,404.1z M271.5,392.7l10.8,7.1l10.8-7.1&#10;&#9;&#9;v-22.5h-21.6V392.7z"/>
</g>
</svg>