<svg version="1.1" id="Layer_1" xmlns="http://www.w3.org/2000/svg" xmlns:xlink="http://www.w3.org/1999/xlink" x="0px" y="0px" viewBox="0 0 500 500" style="width: 166px;" xml:space="preserve" data-imageid="personal-finance-79" imageName="Personal Finance" class="illustrations_image">
<style type="text/css">
	.st0_personal-finance-79{fill:#68E1FD;}
	.st1_personal-finance-79{fill:#093F68;}
	.st2_personal-finance-79{fill:#FFFFFF;}
	.st3_personal-finance-79{fill:#F56132;}
	.st4_personal-finance-79{fill:#FFBC0E;}
	.st5_personal-finance-79{fill:#70CC40;}
	.st6_personal-finance-79{fill:#DFEAEF;}
	.st7_personal-finance-79{fill:#FFC9B0;}
</style>
<g id="graph_personal-finance-79">
	<path class="st0_personal-finance-79 targetColor" d="M138,104.2h281.6c15,0,27.2,12.2,27.2,27.2v213.2c0,15-12.2,27.2-27.2,27.2H138c-15,0-27.2-12.2-27.2-27.2&#10;&#9;&#9;V131.5C110.7,116.4,122.9,104.2,138,104.2z" style="fill: rgb(104, 225, 253);"/>
	<path class="st1_personal-finance-79" d="M418.7,373.8H138.8c-16.5,0-29.9-13.4-29.9-29.9V132.3c0-16.5,13.4-29.9,29.9-29.9h279.9&#10;&#9;&#9;c16.5,0,29.9,13.4,29.9,29.9v211.6C448.6,360.4,435.2,373.8,418.7,373.8z M138.8,106c-14.5,0-26.2,11.8-26.2,26.2v211.6&#10;&#9;&#9;c0,14.5,11.8,26.2,26.2,26.2h279.9c14.5,0,26.3-11.7,26.3-26.2V132.3c0-14.5-11.8-26.3-26.3-26.3c0,0,0,0,0,0H138.8z"/>
	<rect x="132.7" y="131.8" class="st2_personal-finance-79" width="292" height="212.6"/>
	<path class="st1_personal-finance-79" d="M424.8,346.2H132.7c-1,0-1.8-0.8-1.8-1.8c0,0,0,0,0,0V131.8c0-1,0.8-1.8,1.8-1.8c0,0,0,0,0,0h292.1&#10;&#9;&#9;c1,0,1.8,0.8,1.8,1.8c0,0,0,0,0,0v212.6C426.6,345.4,425.8,346.2,424.8,346.2C424.8,346.2,424.8,346.2,424.8,346.2z M134.5,342.5&#10;&#9;&#9;H423V133.6H134.6L134.5,342.5z"/>
	<rect x="158.5" y="297.9" class="st3_personal-finance-79" width="31.9" height="21.5"/>
	<path class="st1_personal-finance-79" d="M190.5,321.3h-31.9c-1,0-1.8-0.8-1.8-1.8v-21.5c0-1,0.8-1.8,1.8-1.8h31.9c1,0,1.8,0.8,1.8,1.8v21.5&#10;&#9;&#9;C192.3,320.5,191.5,321.3,190.5,321.3z M160.4,317.6h28.3v-17.9h-28.3V317.6z"/>
	<rect x="210.6" y="287.5" class="st3_personal-finance-79" width="31.9" height="32"/>
	<path class="st1_personal-finance-79" d="M242.6,321.3h-32c-1,0-1.8-0.8-1.8-1.8v-31.9c0-1,0.8-1.8,1.8-1.8h32c1,0,1.8,0.8,1.8,1.8v31.9&#10;&#9;&#9;C244.4,320.5,243.6,321.3,242.6,321.3z M212.5,317.6h28.3v-28.3h-28.3L212.5,317.6z"/>
	<rect x="262.8" y="257.3" class="st4_personal-finance-79" width="32" height="62.2"/>
	<path class="st1_personal-finance-79" d="M294.7,321.3h-31.9c-1,0-1.8-0.8-1.8-1.8v-62.1c0-1,0.8-1.8,1.8-1.8c0,0,0,0,0,0h31.9c1,0,1.8,0.8,1.8,1.8&#10;&#9;&#9;c0,0,0,0,0,0v62.1C296.6,320.5,295.7,321.3,294.7,321.3C294.7,321.3,294.7,321.3,294.7,321.3z M264.6,317.6h28.3v-58.5h-28.3V317.6&#10;&#9;&#9;z"/>
	<rect x="314.9" y="219.2" class="st5_personal-finance-79" width="32" height="100.2"/>
	<path class="st1_personal-finance-79" d="M346.9,321.3h-32c-1,0-1.8-0.8-1.8-1.8V219.2c0-1,0.8-1.8,1.8-1.8h32c1,0,1.8,0.8,1.8,1.8v100.2&#10;&#9;&#9;C348.7,320.5,347.9,321.3,346.9,321.3z M316.7,317.6H345v-96.6h-28.3V317.6z"/>
	<rect x="367" y="172.1" class="st5_personal-finance-79" width="32" height="147.4"/>
	<path class="st1_personal-finance-79" d="M399,321.3h-32c-1,0-1.8-0.8-1.8-1.8V172.1c0-1,0.8-1.8,1.8-1.8h32c1,0,1.8,0.8,1.8,1.8v147.3&#10;&#9;&#9;C400.8,320.5,400,321.3,399,321.3z M368.9,317.6h28.3V174h-28.3L368.9,317.6z"/>
	<path class="st1_personal-finance-79" d="M414.2,321.3H144.6c-1,0-1.8-0.8-1.8-1.8c0-1,0.8-1.8,1.8-1.8h269.5c1,0,1.8,0.8,1.8,1.8&#10;&#9;&#9;C416,320.5,415.2,321.3,414.2,321.3z"/>
	<path class="st1_personal-finance-79" d="M330.9,245.1c-14.3,0-25.9-11.6-25.9-25.9c0-14.3,11.6-25.9,25.9-25.9c14.3,0,25.9,11.6,25.9,25.9c0,0,0,0,0,0&#10;&#9;&#9;C356.7,233.5,345.2,245.1,330.9,245.1z M330.9,197c-12.3,0-22.2,9.9-22.2,22.2c0,12.3,9.9,22.2,22.2,22.2s22.2-9.9,22.2-22.2&#10;&#9;&#9;C353.1,207,343.1,197,330.9,197L330.9,197z"/>
	<path class="st1_personal-finance-79" d="M319.1,212.4c-0.5,0-1-0.2-1.3-0.6L282.2,174h-27.3c-1,0-1.8-0.8-1.8-1.8s0.8-1.8,1.8-1.8H283&#10;&#9;&#9;c0.5,0,1,0.2,1.3,0.6l36.1,38.4c0.7,0.7,0.7,1.9-0.1,2.6C320.1,212.2,319.6,212.4,319.1,212.4z"/>
	<path class="st6_personal-finance-79" d="M240,174h-31.9c-1,0-1.8-0.8-1.8-1.8s0.8-1.8,1.8-1.8H240c1,0,1.8,0.8,1.8,1.8S241,174,240,174z"/>
	<path class="st6_personal-finance-79" d="M240,193.2h-22.1c-1,0-1.8-0.8-1.8-1.8s0.8-1.8,1.8-1.8H240c1,0,1.8,0.8,1.8,1.8S241,193.2,240,193.2z"/>
	<path class="st6_personal-finance-79" d="M208.1,216.6h-40.2c-1,0-1.8-0.8-1.8-1.8s0.8-1.8,1.8-1.8h40.2c1,0,1.8,0.8,1.8,1.8S209.1,216.6,208.1,216.6z"/>
	<path class="st6_personal-finance-79" d="M236.5,216.6h-18.6c-1,0-1.8-0.8-1.8-1.8s0.8-1.8,1.8-1.8h18.6c1,0,1.8,0.8,1.8,1.8S237.5,216.6,236.5,216.6z"/>
	<path class="st6_personal-finance-79" d="M222.3,239.9h-54.5c-1,0-1.8-0.8-1.8-1.8s0.8-1.8,1.8-1.8h54.4c1,0,1.8,0.8,1.8,1.8S223.3,239.9,222.3,239.9&#10;&#9;&#9;L222.3,239.9z"/>
	<path class="st6_personal-finance-79" d="M182.4,200.9c-9.9,0-18-8.1-18-18s8.1-18,18-18s18,8.1,18,18S192.4,200.9,182.4,200.9z M182.4,168.6&#10;&#9;&#9;c-7.9,0-14.3,6.4-14.3,14.3s6.4,14.3,14.3,14.3s14.3-6.4,14.3-14.3l0,0C196.7,175,190.3,168.6,182.4,168.6z"/>
	<path class="st6_personal-finance-79" d="M182.4,200.9c-9.9,0-18-8-18.1-17.9c0-9.9,8-18,17.9-18.1c3.9,0,7.7,1.2,10.8,3.6c0.8,0.6,1,1.7,0.4,2.6&#10;&#9;&#9;l-7.4,10.1h12.5c1,0,1.8,0.8,1.8,1.8l0,0C200.4,192.8,192.4,200.9,182.4,200.9z M182.4,168.6c-7.9,0-14.3,6.4-14.3,14.3&#10;&#9;&#9;c0,7.9,6.4,14.3,14.3,14.3c7.2,0,13.3-5.3,14.2-12.5h-14.2c-1,0-1.8-0.8-1.8-1.8c0-0.4,0.1-0.8,0.4-1.1l8.4-11.4&#10;&#9;&#9;C187.3,169.2,184.9,168.6,182.4,168.6z"/>
	<rect x="314.9" y="147.6" class="st0_personal-finance-79 targetColor" width="84.1" height="6.9" style="fill: rgb(104, 225, 253);"/>
	<path class="st1_personal-finance-79" d="M399,156.3h-84.1c-1,0-1.8-0.8-1.8-1.8v-6.9c0-1,0.8-1.8,1.8-1.8H399c1,0,1.8,0.8,1.8,1.8v6.9&#10;&#9;&#9;C400.8,155.5,400,156.3,399,156.3z M316.8,152.7h80.4v-3.2h-80.4L316.8,152.7z"/>
</g>
<g id="hand-2_personal-finance-79">
	<path class="st7_personal-finance-79" d="M364.1,374.3l5.2,21.5h86.4c-6.3-14.2-16-35.6-18-38.5c-3-4.4-1.8-61.3-12.9-80.7c-6-9.8-17.1-13.2-28-12.2&#10;&#9;&#9;c-3.3,0.3-32.9,7.6-33.8,4c-3.1-12.4-6.7-24.6-10.9-36.6c-1.9-5.5-4-11.1-7.7-15.6c-3.4-4.2-9.5-7.3-14.1-4.5s-4.6,9.6-4,15&#10;&#9;&#9;c3.7,31.8,13.3,63.2,23.8,93.3c0,0-15.9-10.3-23.8-13.1s-14.7,4.8-9.4,20.9S364.1,374.3,364.1,374.3z"/>
	<path class="st1_personal-finance-79" d="M455.7,397.6h-86.4c-0.8,0-1.6-0.6-1.8-1.4l-5.1-20.9c-5.2-3.8-42.3-31.4-47.5-47c-3.1-9.5-2.5-17.2,1.6-21.3&#10;&#9;&#9;c2.6-2.6,6.3-3.2,10.1-1.9c5.5,1.9,14.4,7.2,19.8,10.5c-9.1-26.4-18.6-57.2-22.2-88.8c-0.6-5.6-0.8-13.3,4.9-16.8&#10;&#9;&#9;c5.5-3.3,12.4,0,16.5,4.9c3.9,4.7,6,10.3,8.1,16.2c4.1,11.9,7.8,24.1,10.8,36.3c3.3,0.9,19.4-2.4,25.5-3.7c3.6-0.8,5.6-1.1,6.4-1.2&#10;&#9;&#9;c13.1-1.2,24,3.6,29.8,13c7.5,13.1,9.6,42.5,10.9,62c0.6,8.5,1.2,17.2,2,18.6c1.6,2.3,7.7,15.4,18.1,38.8c0.4,0.9,0,2-0.9,2.4&#10;&#9;&#9;C456.2,397.6,456,397.6,455.7,397.6L455.7,397.6z M370.8,394h82.1c-9.3-20.7-15.3-33.7-16.7-35.6s-1.7-7.6-2.6-20.4&#10;&#9;&#9;c-1.3-19.1-3.3-48.1-10.4-60.4c-5-8.2-14.6-12.3-26.3-11.3c-0.7,0.1-3.2,0.6-6,1.2c-22.7,4.7-28.8,5-29.7,1.5&#10;&#9;&#9;c-3-12.3-6.7-24.5-10.9-36.5c-1.9-5.5-3.9-10.8-7.4-15.1c-3-3.6-8.1-6.3-11.8-4.1c-3,1.8-4,6-3.1,13.2&#10;&#9;&#9;c3.8,33.2,14.2,65.6,23.8,92.9c0.4,0.9-0.1,2-1.1,2.3c-0.6,0.2-1.2,0.1-1.7-0.2c-0.2-0.1-15.9-10.2-23.5-12.9&#10;&#9;&#9;c-2.1-0.9-4.6-0.5-6.4,1.1c-3.1,3-3.3,9.6-0.7,17.5c5.1,15.4,46.3,45.3,46.7,45.6c0.4,0.3,0.6,0.6,0.7,1L370.8,394z"/>
</g>
<g id="hand-1_personal-finance-79">
	<path class="st7_personal-finance-79" d="M57,278.5c-5.5,28.9-9.3,89-10.8,115.5h79.2l3-21.9c-11.7-4.2-19.5-15.3-19.5-27.8V229.6&#10;&#9;&#9;C87.7,242.9,60,263,57,278.5z"/>
	<path class="st1_personal-finance-79" d="M125.4,394H46.2c1.5-26.5,5.3-86.6,10.8-115.5c3-15.5,30.7-35.6,51.8-48.9v-4.4&#10;&#9;&#9;c-21.8,13.6-52.1,35.2-55.4,52.6c-5.7,29.9-9.6,92.4-11,117.9c-0.1,1,0.7,1.9,1.7,1.9c0,0,0.1,0,0.1,0H127c0.9,0,1.7-0.7,1.8-1.6&#10;&#9;&#9;l3.1-23c-1.2-0.3-2.4-0.6-3.6-1L125.4,394z"/>
	<path class="st7_personal-finance-79" d="M54.9,321.2c0,0-0.5-38.2,43.3-65.7c37.5-23.6,39.4-9.8,37.4-0.3c-2.4,11.7-30,33.6-30,33.6&#10;&#9;&#9;s17.3,17.8-4.3,45.8"/>
	<path class="st1_personal-finance-79" d="M101.4,336.4c-1,0-1.8-0.8-1.8-1.8c0-0.4,0.1-0.8,0.4-1.1c20.3-26.5,4.6-43.3,4.4-43.4&#10;&#9;&#9;c-0.4-0.4-0.6-0.9-0.5-1.4c0-0.5,0.3-1,0.7-1.3c7.5-6,27.5-23.5,29.4-32.5c0.6-2.8,1.1-7.7-1.6-9.6c-2.5-1.8-10.2-2.6-33.1,11.8&#10;&#9;&#9;c-22.1,13.9-32.5,30.6-37.3,42.1c-5.2,12.5-5.2,21.9-5.2,22c0,1-0.8,1.8-1.8,1.8l0,0c-1,0-1.8-0.8-1.8-1.8c0-1.6,0-39.5,44.1-67.3&#10;&#9;&#9;c19.1-12,31.2-15.8,37.1-11.7c3.3,2.3,4.4,6.9,3.1,13.3c-2.2,10.7-23.4,28.7-29.2,33.5c3.7,5.1,13.2,22.4-5.4,46.7&#10;&#9;&#9;C102.5,336.2,102,336.4,101.4,336.4z"/>
</g>
</svg>