<svg id="_0159_data_visualization" xmlns="http://www.w3.org/2000/svg" xmlns:xlink="http://www.w3.org/1999/xlink" viewBox="0 0 500 500" data-imageid="data-visualization-43" imageName="Data Visualization" class="illustrations_image" style="width: 166px;"><defs><style>.cls-1_data-visualization-43{fill:url(#linear-gradient);}.cls-1_data-visualization-43,.cls-2_data-visualization-43,.cls-3_data-visualization-43,.cls-4_data-visualization-43,.cls-5_data-visualization-43,.cls-6_data-visualization-43,.cls-7_data-visualization-43,.cls-8_data-visualization-43{stroke-width:0px;}.cls-2_data-visualization-43{fill:url(#linear-gradient-4-data-visualization-43);}.cls-3_data-visualization-43{fill:url(#linear-gradient-2-data-visualization-43);}.cls-4_data-visualization-43{fill:url(#linear-gradient-3-data-visualization-43);}.cls-5_data-visualization-43{fill:url(#linear-gradient-5-data-visualization-43);}.cls-6_data-visualization-43{isolation:isolate;opacity:.24;}.cls-6_data-visualization-43,.cls-8_data-visualization-43{fill:#68e1fd;}.cls-7_data-visualization-43{fill:#fff;}</style><linearGradient id="linear-gradient-data-visualization-43" x1="790.43" y1="2103.8" x2="806.38" y2="1472.02" gradientTransform="translate(-526.47 2280.36) scale(1 -1)" gradientUnits="userSpaceOnUse"><stop offset="0" stop-color="#231f20" stop-opacity="0"/><stop offset="1" stop-color="#231f20"/></linearGradient><linearGradient id="linear-gradient-2-data-visualization-43" x1="792.36" y1="2112.53" x2="793.42" y2="1874.36" gradientTransform="translate(-526.47 2280.36) scale(1 -1)" gradientUnits="userSpaceOnUse"><stop offset="0" stop-color="#000" stop-opacity="0"/><stop offset=".99" stop-color="#000"/></linearGradient><linearGradient id="linear-gradient-3-data-visualization-43" x1="819.88" y1="2195.18" x2="655.81" y2="2108.75" xlink:href="#linear-gradient-data-visualization-43"/><linearGradient id="linear-gradient-4-data-visualization-43" x1="726.54" y1="2167.95" x2="588.25" y2="2095.1" xlink:href="#linear-gradient-data-visualization-43"/><linearGradient id="linear-gradient-5-data-visualization-43" x1="734.31" y1="1846.82" x2="734.31" y2="1916.48" gradientTransform="translate(-471 2282.23) scale(1 -1)" xlink:href="#linear-gradient-data-visualization-43"/></defs><g id="background_data-visualization-43"><path class="cls-6_data-visualization-43 targetColor" d="M416.27,115.6c-2.74-36.93-31.42-70.47-67.47-78.93-32.56-7.64-66.62,3.73-99.96,1.19-12.94-1-25.7-4.08-38.68-4.43-28.93-.51-56.45,12.45-74.49,35.07-20.78,26.49-35.09,59.33-38.61,92.79-10.81,102.69-49.04,128.36-53.68,157.67-17.76,113.04,98.3,165.88,190.58,170.52,84.14,4.28,196.58-48.97,210.7-67.02,20.45-26.15,14.51-91.74,5.34-123.62-7.34-25.53-18.72-51.01-20.88-77.74-1.8-22.18.3-35.24-8.44-57.21-6.08-15.32-3.23-32.24-4.41-48.3Z" style="fill: rgb(104, 225, 253);"/><path class="cls-6_data-visualization-43 targetColor" d="M107.24,386.87c-5.4,2.57-11.28,4.28-15.98,8.01-5.7,4.55-9.01,11.47-8.97,18.76-.09,2.27.56,4.51,1.86,6.37,2.28,2.86,6.37,3.27,10,3.48,106.67,6.02,213.58,6.27,320.27.74,4.86-.24,9.81-.53,14.28-2.36,4.47-1.83,8.57-5.48,9.51-10.25,1.6-8.04-5.71-14.94-12.65-19.28s-15.08-9-16.68-17.02c-1.26-6.25,1.6-13.99-3.04-18.36-1.27-1.07-2.72-1.91-4.28-2.48-49.07-21.02-102.66-35.39-155.65-28.7-21.42,2.7-42.24,8.8-62.4,16.35-10.25,3.84-20.35,8.07-30.37,12.47-7.67,3.36-17.56,5.94-23.16,12.27-7.03,8.03-12.71,15.24-22.72,20.01Z" style="fill: rgb(104, 225, 253);"/></g><g id="cloud_data-visualization-43"><path class="cls-8_data-visualization-43 targetColor" d="M424.2,203.9c0,30.76-24.93,55.69-55.69,55.69h-208.28c-30.76-.31-55.44-25.49-55.13-56.25.29-29.26,23.19-53.31,52.4-55.03,4.49-25.67,26.78-44.4,52.84-44.4h7.14c12.45.01,24.5,4.34,34.12,12.25,12.98-33.12,50.36-49.45,83.48-36.47,24.7,9.68,40.94,33.51,40.91,60.03.04,3-.22,6-.76,8.95,27.93,3.4,48.93,27.09,48.97,55.22Z" style="fill: rgb(104, 225, 253);"/><path class="cls-1_data-visualization-43" d="M424.2,203.9c0,30.76-24.93,55.69-55.69,55.69h-208.28c-30.76-.31-55.44-25.49-55.13-56.25.29-29.26,23.19-53.31,52.4-55.03,4.49-25.67,26.78-44.4,52.84-44.4h7.14c12.45.01,24.5,4.34,34.12,12.25,12.98-33.12,50.36-49.45,83.48-36.47,24.7,9.68,40.94,33.51,40.91,60.03.04,3-.22,6-.76,8.95,27.93,3.4,48.93,27.09,48.97,55.22Z"/><path class="cls-7_data-visualization-43" d="M423.4,187.82c0,14.27-5.86,27.92-16.19,37.76-10.52,10.08-24.54,15.69-39.11,15.62h-206.79c-30.59,0-55.39-23.83-55.39-53.38.04-14.25,5.89-27.86,16.19-37.7,9.86-9.46,22.83-14.99,36.49-15.54,1.9-10.49,7.08-20.11,14.79-27.46,10.11-9.72,23.59-15.12,37.61-15.08h7.14c12.29-.01,24.22,4.12,33.87,11.74,9.22-22.95,32.34-39.2,59.48-39.2,35.37,0,64,27.63,64,61.78.03,2.87-.22,5.74-.74,8.57,27.42,3.17,48.65,25.66,48.65,52.89Z"/><path class="cls-8_data-visualization-43 targetColor" d="M122.62,398.36c-13.21,0-48.94-2.2-52.47-25.89-4.16-27.9,21.89-44.83,42.84-58.43,18.99-12.34,17.76-51.72,17.75-52.12l8.57-.31c0,1.81,1.43,44.6-21.61,59.56-19.89,12.92-42.41,27.56-39.07,50.05,2.58,17.32,35.8,19.26,48.4,18.56l.49,8.48c-.46.01-2.21.1-4.9.1Z" style="fill: rgb(104, 225, 253);"/><path class="cls-3_data-visualization-43" d="M137.83,200.67c17.92-7.73,53.48-10.92,73-10.91l117.27.16c15.98,0,32.33.1,47.4,5.44,15.07,5.34,50.51,17.14,43.53,31.53-9.84,20.21-30.15,30.75-38.09,34.37-10.82,4.96-23.18,4.84-35.07,4.63l-148.38-2.67c-7.64.05-15.28-.47-22.85-1.54-5.89-1.11-11.71-2.57-17.42-4.37-8.97-2.39-17.78-5.36-26.36-8.9-9.5-4.18-20.69-10.84-18.06-21.11,3.94-15.21,10.92-20.49,25.05-26.63Z"/><path class="cls-4_data-visualization-43" d="M251.98,103.78l14.52,15.04s9.04-54.26,65.95-50.52c.01,0-53.54-18.91-80.47,35.49Z"/><path class="cls-2_data-visualization-43" d="M158.59,134.58s10.34-1.14,20.18,10.82c0,0,2.13-48.4,43.21-49.2,0,0-16.84-10.75-40.28,4.38-21.01,13.57-23.11,33.99-23.11,33.99Z"/></g><g id="laptop_data-visualization-43"><rect class="cls-8_data-visualization-43 targetColor" x="130.9" y="211.86" width="268.02" height="191.44" rx="18.42" ry="18.42" style="fill: rgb(104, 225, 253);"/><rect class="cls-7_data-visualization-43" x="137.28" y="221.33" width="254.4" height="169.31" rx="16.88" ry="16.88"/><path class="cls-8_data-visualization-43 targetColor" d="M127.17,394.01h272.28c7.63,0,13.82,6.19,13.82,13.82h0c0,7.63-6.19,13.82-13.82,13.82H127.17c-7.63,0-13.82-6.19-13.82-13.82h0c0-7.63,6.19-13.82,13.82-13.82Z" style="fill: rgb(104, 225, 253);"/><path class="cls-5_data-visualization-43" d="M121.89,396.05h282.85c4.72,0,8.54,3.82,8.54,8.54h0c0,4.72-3.82,8.54-8.54,8.54H121.89c-4.72,0-8.54-3.82-8.54-8.54h0c0-4.72,3.82-8.54,8.54-8.54Z"/><rect class="cls-8_data-visualization-43 targetColor" x="225.56" y="404.12" width="72.59" height="8.38" style="fill: rgb(104, 225, 253);"/></g><g id="data_graphic_data-visualization-43"><rect class="cls-8_data-visualization-43 targetColor" x="152.05" y="333.12" width="12.24" height="52.65" style="fill: rgb(104, 225, 253);"/><rect class="cls-8_data-visualization-43 targetColor" x="169.06" y="346.18" width="12.24" height="39.58" style="fill: rgb(104, 225, 253);"/><rect class="cls-8_data-visualization-43 targetColor" x="186.21" y="309.35" width="12.24" height="76.41" style="fill: rgb(104, 225, 253);"/><rect class="cls-8_data-visualization-43 targetColor" x="203.36" y="324.69" width="12.24" height="61.08" style="fill: rgb(104, 225, 253);"/><rect class="cls-8_data-visualization-43 targetColor" x="220.51" y="336.94" width="12.24" height="48.82" style="fill: rgb(104, 225, 253);"/><rect class="cls-8_data-visualization-43 targetColor" x="237.66" y="311.27" width="12.24" height="74.5" style="fill: rgb(104, 225, 253);"/><rect class="cls-8_data-visualization-43 targetColor" x="254.81" y="346.18" width="12.24" height="39.58" style="fill: rgb(104, 225, 253);"/><rect class="cls-8_data-visualization-43 targetColor" x="271.96" y="318.15" width="12.24" height="67.62" style="fill: rgb(104, 225, 253);"/><rect class="cls-8_data-visualization-43 targetColor" x="289.11" y="332" width="12.24" height="53.76" style="fill: rgb(104, 225, 253);"/><rect class="cls-8_data-visualization-43 targetColor" x="306.26" y="307.84" width="12.24" height="77.93" style="fill: rgb(104, 225, 253);"/><rect class="cls-8_data-visualization-43 targetColor" x="323.41" y="326.56" width="12.24" height="59.19" style="fill: rgb(104, 225, 253);"/><rect class="cls-8_data-visualization-43 targetColor" x="340.56" y="305.48" width="12.24" height="80.28" style="fill: rgb(104, 225, 253);"/><rect class="cls-8_data-visualization-43 targetColor" x="357.71" y="287.11" width="12.24" height="98.66" style="fill: rgb(104, 225, 253);"/><rect class="cls-8_data-visualization-43 targetColor" x="148.98" y="238.45" width="46.8" height="9.04" style="fill: rgb(104, 225, 253);"/><rect class="cls-8_data-visualization-43 targetColor" x="202.43" y="238.45" width="11.6" height="9.04" style="fill: rgb(104, 225, 253);"/><rect class="cls-8_data-visualization-43 targetColor" x="149.56" y="266.77" width="11.6" height="9.04" style="fill: rgb(104, 225, 253);"/><rect class="cls-8_data-visualization-43 targetColor" x="148.98" y="252.55" width="46.8" height="9.04" style="fill: rgb(104, 225, 253);"/></g></svg>