<svg id="_0516_data_and_settings" xmlns="http://www.w3.org/2000/svg" viewBox="0 0 500 500" data-imageid="data-settings-8" imageName="Data Settings" class="illustrations_image" style="width: 166px;"><defs><style>.cls-1_data-settings-8,.cls-2_data-settings-8,.cls-3_data-settings-8{fill:#fff;}.cls-2_data-settings-8{opacity:.47;}.cls-4_data-settings-8{fill:#a5a5a5;opacity:.19;}.cls-5_data-settings-8{opacity:.03;}.cls-5_data-settings-8,.cls-6_data-settings-8{fill:#000001;}.cls-7_data-settings-8{fill:#e6e6e6;}.cls-6_data-settings-8{opacity:.09;}.cls-3_data-settings-8{opacity:.29;}.cls-8_data-settings-8{opacity:.58;}.cls-8_data-settings-8,.cls-9_data-settings-8,.cls-10_data-settings-8{fill:#68e1fd;}.cls-11_data-settings-8{fill:#24285b;}.cls-9_data-settings-8{opacity:.73;}.cls-12_data-settings-8{fill:#ffd200;}</style></defs><ellipse id="sd_data-settings-8" class="cls-5_data-settings-8" cx="250" cy="429.53" rx="236.02" ry="34.17"/><g id="pie_chart_data-settings-8"><rect class="cls-7_data-settings-8" x="57.55" y="36.3" width="144.72" height="159.59" transform="translate(259.82 232.19) rotate(-180)"/><circle class="cls-12_data-settings-8" cx="73.26" cy="52.58" r="5.54"/><circle class="cls-10_data-settings-8 targetColor" cx="88.88" cy="52.58" r="5.54" style="fill: rgb(104, 225, 253);"/><circle class="cls-11_data-settings-8" cx="103.82" cy="52.58" r="5.54"/><circle class="cls-11_data-settings-8" cx="129.91" cy="110.02" r="30.86"/><path class="cls-12_data-settings-8" d="m129.91,110.02l28.55-11.75s-5.45-18.47-27.81-19.11l-.74,30.85Z"/><path class="cls-1_data-settings-8" d="m129.91,110.02l28.41,12.07s5.43-10.87.13-23.82l-28.55,11.75Z"/><rect class="cls-4_data-settings-8" x="100.55" y="166.47" width="58.92" height="11.57"/></g><g id="plant_data-settings-8"><path class="cls-8_data-settings-8 targetColor" d="m79.12,398.35s-17.71-4.84-21.57-21.32c0,0,27.45-5.55,28.23,22.78l-6.66-1.46Z" style="fill: rgb(104, 225, 253);"/><path class="cls-9_data-settings-8 targetColor" d="m81.29,396.59s-12.38-19.57-1.48-37.86c0,0,20.87,13.25,11.6,37.9l-10.11-.04Z" style="fill: rgb(104, 225, 253);"/><path class="cls-10_data-settings-8 targetColor" d="m84.48,396.6s6.54-20.66,26.3-24.58c0,0,3.71,13.42-12.8,24.63l-13.51-.06Z" style="fill: rgb(104, 225, 253);"/><polygon class="cls-11_data-settings-8" points="71.63 396.14 75.22 420.7 97.83 420.8 101.17 396.26 71.63 396.14"/></g><g id="server_data-settings-8"><path class="cls-10_data-settings-8 targetColor" d="m156.85,193.6v213.02c0,16.08,47.5,29.12,106.09,29.12s106.09-13.04,106.09-29.12v-213.02h-212.19Z" style="fill: rgb(104, 225, 253);"/><ellipse class="cls-10_data-settings-8 targetColor" cx="262.94" cy="193.6" rx="106.09" ry="29.12" style="fill: rgb(104, 225, 253);"/><ellipse class="cls-2_data-settings-8" cx="262.94" cy="193.6" rx="106.09" ry="29.12"/><path class="cls-6_data-settings-8" d="m156.85,268.68s95.87,35.91,212.19,0v74.41s-97.92,43.61-212.19,0v-74.41Z"/><path class="cls-1_data-settings-8" d="m238.25,254.5c-47.34,0-66.55-12.92-67.36-13.48l1.14-1.65c.2.14,20.35,13.58,68.92,13.11l.02,2c-.92,0-1.83.01-2.72.01Z"/><path class="cls-1_data-settings-8" d="m238.25,323.23c-47.34,0-66.55-12.92-67.36-13.48l1.14-1.65c.2.14,20.35,13.59,68.92,13.11l.02,2c-.92,0-1.83.01-2.72.01Z"/><path class="cls-1_data-settings-8" d="m238.25,398.29c-47.34,0-66.55-12.92-67.36-13.48l1.14-1.65c.2.14,20.35,13.62,68.92,13.11l.02,2c-.92,0-1.83.01-2.72.01Z"/></g><g id="panel_data-settings-8"><rect class="cls-11_data-settings-8" x="280.83" y="101.46" width="174.29" height="94.51"/><path class="cls-12_data-settings-8" d="m432.18,153.55l-5.81-4.55c.18-1.59.18-3.19,0-4.77l5.82-4.55c1.09-.88,1.38-2.42.69-3.63l-6.05-10.45c-.7-1.22-2.18-1.76-3.5-1.26l-6.85,2.76c-1.29-.93-2.67-1.73-4.12-2.39l-1.05-7.28c-.19-1.4-1.39-2.44-2.8-2.42h-12.12c-1.4,0-2.59,1.02-2.78,2.4l-1.05,7.3c-1.44.66-2.82,1.46-4.11,2.39l-6.87-2.76c-1.3-.51-2.78.01-3.47,1.24l-6.05,10.47c-.71,1.22-.42,2.77.69,3.65l5.81,4.55c-.18,1.59-.18,3.19,0,4.77l-5.82,4.55c-1.09.88-1.38,2.42-.69,3.63l6.04,10.46c.7,1.22,2.18,1.76,3.5,1.26l6.85-2.76c1.29.93,2.67,1.74,4.12,2.39l1.05,7.27c.19,1.39,1.38,2.43,2.78,2.43h12.12c1.4.01,2.59-1.02,2.79-2.4l1.05-7.3c1.44-.66,2.82-1.46,4.11-2.39l6.88,2.76c1.3.51,2.78-.02,3.47-1.24l6.07-10.51c.68-1.21.38-2.74-.71-3.61Zm-29.73,6.24c-7.28,0-13.17-5.9-13.17-13.17s5.9-13.17,13.17-13.17,13.17,5.9,13.17,13.17c0,7.27-5.9,13.17-13.17,13.17Z"/><rect class="cls-1_data-settings-8" x="303.47" y="133.93" width="47.67" height="9.53"/><rect class="cls-3_data-settings-8" x="303.47" y="153.96" width="47.67" height="9.53"/></g></svg>